<svg xmlns="http://www.w3.org/2000/svg" xmlns:xlink="http://www.w3.org/1999/xlink" width="740.609" height="392.966" viewBox="0 0 740.609 392.966"><defs><linearGradient id="linear-gradient" x1=".5" x2=".5" y1="1" gradientUnits="objectBoundingBox"><stop offset="0" stop-color="gray" stop-opacity=".251"/><stop offset=".54" stop-color="gray" stop-opacity=".122"/><stop offset="1" stop-color="gray" stop-opacity=".102"/></linearGradient></defs><g id="New_Group" data-name="New Group" transform="translate(-0.001 -0.051)"><path id="Path_275" fill="#6c63ff" d="M75.894,209c1.2,7.613,4.266,14.966,4.293,22.665.1,25.158-30.424,40.61-35.1,65.328-2.773,14.666,4.413,29.651,14.546,40.59s23.052,18.825,34.951,27.825A223.8,223.8,0,0,1,167.908,462.4c3.006,7.733,5.593,15.706,6.446,23.958.62,6,.327,12.139,1.733,18,5.566,23.258,33.791,32.284,57.656,33.791a252.847,252.847,0,0,0,112.485-18.785c8-3.333,16.259-7.119,24.845-6.18,6.866.753,12.992,4.466,19.019,7.846a252.27,252.27,0,0,0,56.249,23.158c10.866,3,22.272,5.279,33.371,3.333,33.331-5.88,51.043-46.3,83.747-55.143,22.625-6.113,46.17,4.566,66.462,16.292s41.237,25.231,64.662,25.265c31.251.04,56.942-23.612,78.141-46.57,4.446-4.82,8.966-9.859,11.086-16.065,4.3-12.6-2.666-26.751-12.966-35.217s-23.285-12.666-35.691-17.505a309.489,309.489,0,0,1-59.842-31.251C663.177,379.2,651.424,370,643.125,358c-7.139-10.346-11.426-22.338-16.212-33.964-10.492-25.458-25.331-51.329-50.11-63.275-20.232-9.759-43.73-8.666-66.188-8.926-33.091-.367-67.022-4.346-96.359-19.652-24.778-12.926-45.13-33.331-70.275-45.55-40-19.419-85.72-15.612-128.817-14.879-20.712.353-45.33,2.42-65.222-4.366-14.712-5.02-22.285-15.279-39.184-11.146C87.647,161.873,72.2,185.518,75.894,209Z" data-name="Path 275" opacity=".1" transform="translate(-44.49 -155.23)"/><path id="Path_276" fill="url(#linear-gradient)" d="M705.2,414.851a16.665,16.665,0,0,1,.313-10.572c2-5.173,6.873-8.906,8.586-14.192,3.186-9.819-5.4-19.012-10.666-27.911a46.876,46.876,0,0,1-6.273-27.331c.82-10.239,5.013-20.032,5.333-30.3.287-9.566-2.813-18.872-5.873-27.938-2.526-7.493-5.1-15.072-9.373-21.725-8.079-12.579-22.432-20.485-37.191-21.792-6.966-.62-13.779,1.647-20.625.76-9.506-1.227-18.492-3.693-28.185-4-9.206-.273-19.385.893-25.658,7.639-4.793,5.166-6.326,12.626-10.713,18.145-6.226,7.833-17.112,10.519-24,17.772a25.178,25.178,0,0,0-5.686,24.285c.953,3.093,2.513,5.966,3.526,9.039,4.26,12.839-1.333,26.571-4.713,39.664a6,6,0,0,0-.2,3.333c.533,1.6,2.213,2.44,3.606,3.386,4.56,3.106,6.886,8.733,7.333,14.232s-.827,10.979-2.08,16.352c-3.193,13.659-7.186,28.291-17.712,37.377A96.159,96.159,0,0,0,518.2,407.9c-6.439-10.439-11.206-23.332-11.286-35.671a.46.46,0,0,1,0-.113c0-.667.033-1.333.073-2,.833-14.559,7.126-28.6,6.986-43.1q0-1.76-.1-3.526c-.82-12.406-6.779-23.878-13.612-34.264-5.1-7.753-10.846-15.239-18.205-20.885-11.379-8.659-25.838-12.419-40.044-14.406s-27.131-3.853-41.45-4.813c-15.4-1.033-32.344-1.613-44.517,7.866-15.872,12.359-16.752,36.231-28.851,52.3-7.2,9.559-18.665,16.945-22.458,27.8a67.138,67.138,0,0,1-2.56-8.166c-.04-.187-.08-.367-.12-.553a79.487,79.487,0,0,0,3.086-40.817,50.229,50.229,0,0,0,.46-6.666,26.253,26.253,0,0,0-.78-7.206c-1.713-6.493-6.44-11.686-11.006-16.612a48.746,48.746,0,0,0-5.4-5.233A79.141,79.141,0,0,0,153.466,330.5a20.719,20.719,0,0,1-5.58,12.172c-1.473,1.46-3.38,3.286-3.06,5.153a2.513,2.513,0,0,0,.213,1.567,4.386,4.386,0,0,0,1.333,1.46,24,24,0,0,0,16.325,4.866,68.262,68.262,0,0,0,27.491,35.291q0,.667-.047,1.293c0,.74-.06,1.473-.093,2.22v.307c0-.067-23.212,30.258-44.663,31.384-11.452.6-21.445,8.326-29.018,17.159-9.093,10.6-14.706,22.785-15.186,26.158-.887,6.186-7.073,36.251-7.073,36.251H272.323c-2.107,10.826-4.946,24.618-4.946,24.618h288.5c-.667-9.273-1.407-17.845-2.093-25.1h36.271l-.04.22H757.34l10.613-15.925C765.319,443.189,737.948,417.677,705.2,414.851ZM288.635,363.015a43.224,43.224,0,0,0,12,4.32c1.82.373,3.853.607,5.406-.413a6.213,6.213,0,0,0,2.18-3.086l.08.2c4.5,11.332,8.666,23.025,9.473,35.2.073,1.147.12,2.293.127,3.446a49.849,49.849,0,0,1-4.206,20.172,388.834,388.834,0,0,1-43.51-26.665l-.94-.4c0,.073.327.907.713,2.313.093.34.193.713.293,1.113-.953-3.08-1.82-6.226-2.58-9.433l-.26-1.14a68.348,68.348,0,0,0,21.225-25.625Z" data-name="Path 276" transform="translate(-61.032 -177.832)"/><path id="Path_277" fill="#fff" d="M238,480.493v0Z" data-name="Path 277" transform="translate(-109.003 -263.506)"/><path id="Path_278" fill="#fff" d="M237.93,479.833v0Z" data-name="Path 278" transform="translate(-108.98 -263.279)"/><path id="Path_279" fill="#fff" d="M237.88,479.07Z" data-name="Path 279" transform="translate(-108.963 -263.176)"/><path id="Path_280" fill="#fff" d="M237.89,479.38Z" data-name="Path 280" transform="translate(-108.966 -263.279)"/><path id="Path_281" fill="#fff" d="M237.88,479.22Z" data-name="Path 281" transform="translate(-108.963 -263.226)"/><path id="Path_282" fill="#f7d6c8" d="M806.278,236.762c-9.059-.273-19.085.88-25.251,7.519-4.72,5.08-6.226,12.426-10.546,17.859-6.126,7.713-16.839,10.353-23.625,17.492a24.785,24.785,0,0,0-5.6,23.9c.94,3.04,2.473,5.873,3.473,8.893,4.193,12.666-1.28,26.151-4.666,39.037a5.874,5.874,0,0,0-.193,3.293c.52,1.573,2.18,2.4,3.546,3.333,4.486,3.06,6.779,8.593,7.186,14s-.813,10.806-2.047,16.092c-3.273,14-7.406,29.071-18.772,37.89-4.8,3.766-11.212,6.819-12.466,12.819-1.467,7.026,5.24,13,11.672,16.179,18.885,9.333,40.81,9.466,61.469,13.626,18.192,3.666,36.337,10.613,54.749,8.239,8.206-1.053,16.052-3.94,23.818-6.8l48.356-17.819a12.579,12.579,0,0,0,3.8-1.913c2.913-2.427,3.013-7.039,1.427-10.486s-4.466-6.086-7-8.913c-5.52-6.18-9.719-14.906-6.706-22.625,2-5.093,6.766-8.766,8.453-14,3.133-9.666-5.333-18.719-10.466-27.478a46.136,46.136,0,0,1-6.173-26.871c.807-10.079,4.933-19.719,5.233-29.824.28-9.413-2.766-18.572-5.78-27.5-2.487-7.373-5.02-14.832-9.226-21.385-7.953-12.379-22.078-20.158-36.611-21.452-6.859-.607-13.559,1.62-20.3.753C824.67,239.475,815.817,237.048,806.278,236.762Z" data-name="Path 282" transform="translate(-268.732 -182.382)"/><path id="Path_283" fill="#efb7b9" d="M850.05,555.26s-54.823-34.371-33.5-73.994a61.137,61.137,0,0,0,7.56-25.738,55.653,55.653,0,0,0,0-6.26v-.3q-.107-1.613-.287-3.173a64.6,64.6,0,0,0-15.979-34.551s90.933-26.538,75.708-2.613c-7.066,11.106-4.953,22-.22,33.271.5,1.187,1.033,2.386,1.587,3.58,5.466,11.886,13.052,24.2,15.172,37.551C904.433,510.443,850.05,555.26,850.05,555.26Z" data-name="Path 283" transform="translate(-298.978 -236.36)"/><path id="Path_284" d="M883.548,408.63c-7.066,11.106-4.953,22-.22,33.271a61.442,61.442,0,0,1-59.529,3.92,64.511,64.511,0,0,0-15.959-34.577S898.78,384.7,883.548,408.63Z" data-name="Path 284" opacity=".1" transform="translate(-298.978 -236.359)"/><circle id="Ellipse_36" cx="61.349" cy="61.349" r="61.349" fill="#efb7b9" data-name="Ellipse 36" transform="translate(489.717 91.344)"/><path id="Path_285" d="M832.24,474.42v-.3l.073-.12A1.986,1.986,0,0,0,832.24,474.42Z" data-name="Path 285" opacity=".1" transform="translate(-307.113 -261.486)"/><path id="Path_286" d="M851.942,578.675s-54.823-34.371-33.5-73.994A61.138,61.138,0,0,0,826,478.943c1.247,9.786,8,21.952,20.292,38.79,5.333,7.333,7.626,17.585,8.353,27.831l1.22.887,6-3.626c.667-11.333,2.96-22.785,8.386-30.9,14.259-21.332,17.645-32,16.592-43.05,5.466,11.886,13.052,24.2,15.172,37.551C906.325,533.858,851.942,578.675,851.942,578.675Z" data-name="Path 286" opacity=".1" transform="translate(-300.87 -259.775)"/><path id="Path_287" fill="#6c63ff" d="M890.053,495.871c-32.664-2.373-53.329-27.731-53.329-27.731,1.74,11.879-1.087,22.512-16.319,45.33-5.393,8.093-7.679,19.525-8.346,30.884l-6,3.626-1.22-.887c-.727-10.239-3.013-20.505-8.353-27.831-15.226-20.885-22-34.591-20.232-45.47,0,0-16.752,27.191-49.383,29.371S666.83,528.4,664.21,570.606l10.439,14.359H777.621l-.04.22H942.236L952.715,569.5C950.1,523.422,922.717,498.244,890.053,495.871Z" data-name="Path 287" transform="translate(-251.094 -259.532)"/><path id="Path_288" fill="#707070" d="M890.053,495.871c-32.664-2.373-53.329-27.731-53.329-27.731,1.74,11.879-1.087,22.512-16.319,45.33-5.393,8.093-7.679,19.525-8.346,30.884l-6,3.626-1.22-.887c-.727-10.239-3.013-20.505-8.353-27.831-15.226-20.885-22-34.591-20.232-45.47,0,0-16.752,27.191-49.383,29.371S666.83,528.4,664.21,570.606l10.439,14.359H777.621l-.04.22H942.236L952.715,569.5C950.1,523.422,922.717,498.244,890.053,495.871Z" data-name="Path 288" transform="translate(-251.094 -259.532)"/><path id="Path_289" d="M879.553,318.077c-2.667,6.6-7.4,12.172-12.572,17.065-7.146,6.766-16.132,12.726-25.958,12.266A39.817,39.817,0,0,0,852.228,329c-6.2,3.613-10.886,9.333-16.805,13.406s-14.286,6.173-20.072,1.92A60.169,60.169,0,0,0,840.462,320.6c-14.052,3.646-21.265,19.472-33.924,26.578a38.484,38.484,0,0,1-19.672,4.44c-4.833-.1-10.219-1.227-12.912-5.24-1.573-2.333-1.94-5.266-2-8.086-.293-12.786,4.913-25.331,12.932-35.284s18.665-17.519,30.051-23.392c4.053-2.093,8.279-4,12.792-4.666,5.613-.813,11.332.38,16.839,1.647,7.159,1.64,14.359,3.44,20.952,6.666C879.593,290.226,885.739,302.851,879.553,318.077Z" data-name="Path 289" opacity=".1" transform="translate(-287.01 -195.036)"/><path id="Path_290" fill="#f7d6c8" d="M879.553,316.767c-2.667,6.6-7.4,12.172-12.572,17.065-7.146,6.766-16.132,12.726-25.958,12.266a39.818,39.818,0,0,0,11.206-18.412c-6.2,3.613-10.886,9.333-16.805,13.406s-14.286,6.173-20.072,1.92a60.168,60.168,0,0,0,25.111-23.725c-14.052,3.646-21.265,19.472-33.924,26.578a38.485,38.485,0,0,1-19.672,4.44c-4.833-.1-10.219-1.227-12.912-5.24-1.573-2.333-1.94-5.266-2-8.086-.293-12.786,4.913-25.331,12.932-35.284s18.665-17.519,30.051-23.392c4.053-2.093,8.279-4,12.792-4.666,5.613-.813,11.332.38,16.839,1.647,7.159,1.64,14.359,3.44,20.952,6.666C879.593,288.9,885.739,301.541,879.553,316.767Z" data-name="Path 290" transform="translate(-287.01 -194.599)"/><circle id="Ellipse_37" cx="77.881" cy="77.881" r="77.881" fill="#c3705a" data-name="Ellipse 37" transform="translate(91.653 47.667)"/><path id="Path_291" fill="#ecb4b6" d="M343.924,504.573s-71.328,18.272-73.094,20-60.042,4.786-43.077-30.891c6.233-13.1,8.826-30.891,9.613-48.163.033-.733.067-1.46.093-2.187a355.763,355.763,0,0,0-2.74-55.816s82.66-32.664,76.574,16.972c-1.52,12.346-.26,24.751,2.5,36.417.92,3.893,2,7.7,3.2,11.392A194.256,194.256,0,0,0,343.924,504.573Z" data-name="Path 291" transform="translate(-104.556 -229.137)"/><path id="Path_292" d="M318.814,440.924a67.022,67.022,0,0,1-76.334,2.427,355.763,355.763,0,0,0-2.74-55.816s82.66-32.664,76.574,16.972A104,104,0,0,0,318.814,440.924Z" data-name="Path 292" opacity=".1" transform="translate(-109.583 -229.143)"/><circle id="Ellipse_38" cx="67.002" cy="67.002" r="67.002" fill="#ecb4b6" data-name="Ellipse 38" transform="translate(102.312 89.65)"/><path id="Path_293" d="M343.924,538.856s-71.328,18.272-73.094,20-60.042,4.786-43.077-30.891c6.233-13.1,8.826-30.891,9.613-48.163.667,9.026,5.826,30.884,6.486,38.157a6.338,6.338,0,0,0,.253,1.253c.967,3.233,4.413,6.959,8.566,10.492l.247.207a31.778,31.778,0,0,0,37.424,2.5A168.76,168.76,0,0,0,307.38,520.13c7.759-6.406,10.179-15.039,10.479-22.665a48.525,48.525,0,0,0-.867-10.919A194.139,194.139,0,0,0,343.924,538.856Z" data-name="Path 293" opacity=".1" transform="translate(-104.556 -263.419)"/><path id="Path_294" fill="#6c63ff" d="M393.1,589.492H102s6.093-29.584,6.959-35.677c.473-3.333,6-15.332,14.952-25.751,7.453-8.666,17.285-16.3,28.558-16.892,21.1-1.107,43.943-30.891,43.943-30.891h0c.507,8.666,5.853,31.3,6.526,38.724a6.342,6.342,0,0,0,.253,1.253c.967,3.233,4.413,6.959,8.566,10.492l.247.207a31.771,31.771,0,0,0,37.424,2.506,169.5,169.5,0,0,0,17.039-12.279c7.759-6.406,10.179-15.039,10.479-22.665a50.2,50.2,0,0,0-1.82-14.992,23.721,23.721,0,0,0-.707-2.273l.927.393s39.417,28.665,75.528,40.384a43.184,43.184,0,0,1,11.839,6,51.175,51.175,0,0,1,8.039,7.219,74.836,74.836,0,0,1,12,18.459A126.7,126.7,0,0,1,393.1,589.492Z" data-name="Path 294" transform="translate(-63.663 -263.579)"/><path id="Path_295" fill="#026e57" d="M393.1,589.492H102s6.093-29.584,6.959-35.677c.473-3.333,6-15.332,14.952-25.751,7.453-8.666,17.285-16.3,28.558-16.892,21.1-1.107,43.943-30.891,43.943-30.891h0c.507,8.666,5.853,31.3,6.526,38.724a6.342,6.342,0,0,0,.253,1.253c.967,3.233,4.413,6.959,8.566,10.492l.247.207a31.771,31.771,0,0,0,37.424,2.506,169.5,169.5,0,0,0,17.039-12.279c7.759-6.406,10.179-15.039,10.479-22.665a50.2,50.2,0,0,0-1.82-14.992,23.721,23.721,0,0,0-.707-2.273l.927.393s39.417,28.665,75.528,40.384a43.184,43.184,0,0,1,11.839,6,51.175,51.175,0,0,1,8.039,7.219,74.836,74.836,0,0,1,12,18.459A126.7,126.7,0,0,1,393.1,589.492Z" data-name="Path 295" transform="translate(-63.663 -263.579)"/><path id="Path_296" d="M290.135,320.053c1.733,6.666,4,14.072,9.953,17.545a8.739,8.739,0,0,1,2.18,1.487c1.467,1.593,1.02,4.08.8,6.24-.76,7.413,2.426,14.926,7.653,20.238s12.3,8.559,19.6,10.053c1.787.367,3.793.6,5.333-.407a6.219,6.219,0,0,0,2.186-3.14c2.033-5.406,1.173-11.479-.527-17s-4.206-10.786-5.493-16.419c-3.06-13.366.993-27.178,2.82-40.77.607-4.52.96-9.179-.207-13.586-1.687-6.386-6.34-11.506-10.833-16.352-2.42-2.606-4.893-5.26-8-6.966-9.159-5.006-20.952-.56-30.731-4.206-3.913-1.46-7.239-4.126-10.966-6-7.913-4-17.292-4.22-25.965-2.4s-16.8,5.56-24.845,9.266l-6.153,2.786c-8.666,4-17.952,8.519-22.618,16.885-4.966,8.906-3.586,20.305-8.553,29.211-1.507,2.666-3.606,5.226-4,8.293a16.538,16.538,0,0,0,1.047,6.566c1.547,5.206,2.893,10.559,2.773,16s-1.853,11.012-5.706,14.839c-1.627,1.613-3.8,3.68-2.8,5.74a4.32,4.32,0,0,0,1.333,1.44A23.6,23.6,0,0,0,200.9,362.73a14.6,14.6,0,0,0,7.333-5.533,21.658,21.658,0,0,0,2.36-6.186c2.107-7.846,4.226-15.825,4.06-23.952-.093-4.666-.947-9.373-.267-14s3.38-9.393,7.879-10.666c3.333-.953,6.9.2,10.379.167,5.013-.04,11.159-5.6,15.805-3.966,4,1.413,7.166,9.066,10.473,12C267.31,318.08,279.016,321.993,290.135,320.053Z" data-name="Path 296" opacity=".1" transform="translate(-88.61 -185.9)"/><path id="Path_297" fill="#c3705a" d="M290.161,318.727c1.733,6.666,4,14.072,9.953,17.545a8.738,8.738,0,0,1,2.153,1.453c1.467,1.593,1.02,4.08.8,6.24-.76,7.413,2.426,14.926,7.653,20.238s12.3,8.559,19.6,10.053c1.787.367,3.793.6,5.333-.407a6.219,6.219,0,0,0,2.186-3.14c2.033-5.406,1.173-11.479-.527-17s-4.206-10.786-5.493-16.419c-3.06-13.366.993-27.178,2.82-40.77.607-4.52.96-9.179-.207-13.586-1.687-6.386-6.34-11.506-10.833-16.352-2.42-2.606-4.893-5.26-8-6.966-9.159-5.006-20.952-.56-30.731-4.206-3.913-1.46-7.239-4.126-10.966-6-7.913-4-17.292-4.22-25.965-2.4s-16.8,5.56-24.845,9.266l-6.073,2.8c-8.666,4-17.952,8.519-22.618,16.885-4.966,8.906-3.586,20.305-8.553,29.211-1.507,2.666-3.606,5.226-4,8.293a16.537,16.537,0,0,0,1.047,6.566c1.547,5.206,2.893,10.559,2.773,16s-1.853,11.012-5.706,14.839c-1.627,1.613-3.8,3.68-2.8,5.74a4.32,4.32,0,0,0,1.333,1.44,23.6,23.6,0,0,0,22.485,3.333,14.6,14.6,0,0,0,7.333-5.533,21.659,21.659,0,0,0,2.36-6.186c2.107-7.846,4.226-15.825,4.06-23.951-.093-4.666-.947-9.373-.267-14s3.38-9.393,7.879-10.666c3.333-.953,6.9.2,10.379.167,5.013-.04,11.159-5.6,15.805-3.966,4,1.413,7.166,9.066,10.473,12C267.336,316.76,279.042,320.673,290.161,318.727Z" data-name="Path 297" transform="translate(-88.636 -185.446)"/><rect id="Rectangle_234" width="152.722" height="130.963" fill="#463a3e" data-name="Rectangle 234" transform="translate(272 161.738)"/><rect id="Rectangle_235" width="152.722" height="130.963" data-name="Rectangle 235" opacity=".05" transform="translate(272 161.738)"/><path id="Path_298" fill="#c17174" d="M583.427,586.265H452.77c1.687-9.513,6.62-19.938,16.232-31.178a115.326,115.326,0,0,0,18.412-29.464q1.86-4.286,3.333-8.593a125.823,125.823,0,0,0,5.86-26.278,7.363,7.363,0,0,1,.087-.76,143.565,143.565,0,0,0,.813-18.612c0-.447,0-.88,0-1.333a169.6,169.6,0,0,0-7.5-44.943l-.167-.52c-1.42-4.473-2.46-6.986-2.46-6.986s2.593-1.407,6.873-3.48l.36-.173c15.739-7.559,53-23.332,69.421-12.092l.267.18c5.746,4.093,8.839,11.606,7.386,24.118v.147a6.592,6.592,0,0,1-.073.667,242.141,242.141,0,0,0-1.246,25.958c0,.433,0,.867,0,1.333q0,3.046.067,6.173v.84c.133,6.733.433,13.686.853,20.738.58,9.779,1.407,19.739,2.36,29.511.407,4.18.847,8.333,1.333,12.419.053.48.107.973.16,1.447.56,4.98,1.14,9.859,1.733,14.592l.04.307C579.18,559.08,581.687,575.492,583.427,586.265Z" data-name="Path 298" transform="translate(-180.604 -236.127)"/><path id="Path_299" d="M588.927,426.191v.147A239.751,239.751,0,0,0,587.594,453c0,.433,0,.867,0,1.333a63.6,63.6,0,0,1-72.828,17.119v-1.333a169.264,169.264,0,0,0-7.666-45.463c-1.42-4.473-2.46-6.986-2.46-6.986s2.593-1.407,6.873-3.48c15.586-7.533,53.616-23.8,70.028-12.119C587.28,406.166,590.374,413.679,588.927,426.191Z" data-name="Path 299" opacity=".1" transform="translate(-197.896 -236.142)"/><circle id="Ellipse_39" cx="63.542" cy="63.542" r="63.542" fill="#c17174" data-name="Ellipse 39" transform="translate(277.999 111.842)"/><path id="Path_300" d="M494.1,641.895H358.54s6.093-29.584,6.959-35.677c.473-3.333,6-15.332,14.952-25.751a65.768,65.768,0,0,1,40.45-14.352c25.925-.387,33.471,8.539,35.517,15.139a14.779,14.779,0,0,1,.533,6.859l4.906,7.106Z" data-name="Path 300" opacity=".1" transform="translate(-149.189 -292.191)"/><path id="Path_301" fill="#42b983" d="M493.446,642.545H357.89s6.093-29.584,6.959-35.677c.473-3.333,6-15.332,14.952-25.751a65.767,65.767,0,0,1,40.45-14.352c25.925-.387,33.471,8.539,35.517,15.139a14.779,14.779,0,0,1,.533,6.859l4.906,7.106Z" data-name="Path 301" transform="translate(-148.972 -292.408)"/><path id="Path_302" d="M712.189,640.775H570.16c6.773-14.412,24.525-52.836,25.511-61.722.38-3.44,4.046-6.666,8.9-9.406a50.587,50.587,0,0,1,4.726-2.387l.293-.133q1.333-.587,2.7-1.087a54.1,54.1,0,0,1,38,.3c11.659,4.433,26.665,10.406,38.344,16l.093.047c3,1.44,5.793,2.846,8.253,4.2,4.92,2.7,8.513,5.166,9.893,7.139.633.907,1.333,4.993,2.1,11.333C709.989,613.631,711.1,626.35,712.189,640.775Z" data-name="Path 302" opacity=".1" transform="translate(-219.74 -291.071)"/><path id="Path_303" fill="#42b983" d="M712.839,641.425H570.81c6.773-14.412,24.525-52.836,25.511-61.722.38-3.44,4.046-6.666,8.9-9.406a50.588,50.588,0,0,1,4.726-2.387l.293-.133q1.333-.587,2.7-1.087a54.1,54.1,0,0,1,38,.3c11.659,4.433,26.665,10.406,38.344,16l.093.047c3,1.44,5.793,2.846,8.253,4.2,4.92,2.7,8.513,5.166,9.893,7.14.633.907,1.333,4.993,2.1,11.333C710.646,614.281,711.753,627.006,712.839,641.425Z" data-name="Path 303" transform="translate(-219.956 -291.288)"/><path id="Path_304" d="M619.1,472.458q0,3.073-.167,6.153-.093,1.5-.227,3c-.06.72-.133,1.433-.207,2.147l-.093.827c-1.087,9.693-3.093,19.332-3.333,29.071v1.38a121.324,121.324,0,0,0,3.44,27.118H536.716c-.133-1.66-.2-3.333-.18-4.98a43.7,43.7,0,0,1,.247-4.466c1.26-12.272,7.533-23.758,8.479-35.951l.04-.56c.06-.913.093-1.833.08-2.753V493.2a47.128,47.128,0,0,0-1.847-11.906l-.16-.58a119.9,119.9,0,0,0-4-11.332l-.293-.74c-2.22-5.546-4.553-11.046-6.133-16.559a44.057,44.057,0,0,1-1.927-12.666c0-.767.047-1.533.107-2.3.053-.627.127-1.253.22-1.887a29.527,29.527,0,0,1,.587-2.94c1.333-5.253,4.18-10.179,6.906-15.059h0c3.033-5.433,5.926-10.806,6.446-16.519a19.1,19.1,0,0,0,.073-2.173h0a19.144,19.144,0,0,0-.267-2.786c-.7-4.053-2.786-7.7-4.5-11.439-.173-.38-.347-.76-.513-1.147,0-.06-.053-.12-.073-.18-3.333-7.7-5.266-15.912-7.3-24.085-.087-.353-.173-.707-.267-1.053-.5-2-1.013-4-1.56-6-2.986-10.906-7.24-21.925-15.332-29.8s-21-11.859-31.131-6.846c-8.766,4.366-13.512,14.139-15.652,23.685s-2.313,19.512-5.093,28.9q-.3,1.027-.667,2.047c-.12.347-.24.667-.36,1.047a104.755,104.755,0,0,1-4.253,10.113l-.167.353c-5.066,10.779-10.952,21.372-11.139,32.2v1.013a27.936,27.936,0,0,0,1.16,7.6,37.868,37.868,0,0,0,6.56,12q.833,1.087,1.707,2.153c2.8,3.44,5.84,6.773,8.5,10.319l.087.113a42.172,42.172,0,0,1,5.086,8.486,30.978,30.978,0,0,1,.133,23.932,44.969,44.969,0,0,1-2.593,5.106c-1.713,2.96-3.6,5.84-5.086,8.919a33.321,33.321,0,0,0-1.333,3.153c-3.333,8.586-4.053,18.085-6.773,26.945a61.175,61.175,0,0,1-9.686,18.859H358.19c1.007-4.926,6-29.331,6.786-34.811.473-3.333,6-15.332,14.952-25.751q-1.13.89-2.18,1.793a74.155,74.155,0,0,0-14.512,16.705c.193-.6.393-1.207.593-1.807,1.22-3.64,2.54-7.246,3.88-10.806,3.88-10.253,8.2-20.712,15.932-28.485,4.366-4.386,9.679-7.766,13.839-12.346,7.333-8.059,10.366-19.225,10.279-30.171,0-1.133-.047-2.26-.12-3.386-.793-12-4.893-23.485-9.333-34.664-2.386-6-4.92-12.306-4.806-18.665a20.8,20.8,0,0,1,.193-2.666c1.833-13.179,15.166-21.072,23.172-31.7,11.906-15.819,12.772-39.33,28.391-51.476,12-9.333,28.664-8.759,43.817-7.746,14.092.947,26.811,2.78,40.8,4.74s28.178,5.64,39.4,14.259c7.246,5.56,12.9,12.926,17.919,20.558,6.72,10.226,12.592,21.518,13.4,33.724.06.873.093,1.74.093,2.6.14,14.266-6.053,28.091-6.873,42.417-.033.667-.06,1.333-.067,2a.452.452,0,0,0,0,.107c-.147,12.419,4.62,25.458,11.106,36A96.546,96.546,0,0,1,619.1,472.458Z" data-name="Path 304" opacity=".1" transform="translate(-149.072 -192.015)"/><path id="Path_305" fill="#463a3e" d="M619,472.034c0,1.76-.067,3.526-.167,5.28q-.093,1.5-.227,3t-.3,2.973c-1.087,9.693-3.093,19.332-3.333,29.071V514.6c.047,9.139,1.593,18.152,3.633,27.118H536.69c-.153-1.66-.247-3.333-.26-4.98a47.687,47.687,0,0,1,.247-5.333c1.26-12.272,7.533-23.758,8.479-35.951.067-.893.113-1.787.12-2.667v-.627a47.691,47.691,0,0,0-1.993-12.732,119.905,119.905,0,0,0-4-11.333c-2.307-5.793-4.78-11.546-6.433-17.332a45.078,45.078,0,0,1-1.927-11.819,31,31,0,0,1,.107-3.173c.053-.627.127-1.253.22-1.887a29.525,29.525,0,0,1,.587-2.94c1.333-5.253,4.18-10.179,6.906-15.059,3.04-5.44,5.946-10.826,6.459-16.545.04-.433.06-.873.073-1.333h0a18.669,18.669,0,0,0-.267-3.66c-.7-4.053-2.786-7.7-4.5-11.439-.173-.38-.347-.76-.513-1.147-3.38-7.746-5.333-16-7.373-24.265-.587-2.36-1.187-4.72-1.82-7.06-2.986-10.906-7.239-21.925-15.332-29.8s-20.978-11.779-31.1-6.74c-8.766,4.366-13.512,14.139-15.652,23.685s-2.313,19.512-5.093,28.9c-.307,1.033-.667,2.066-1.007,3.093-1.24,3.513-2.786,7-4.413,10.466-5.206,11.059-11.266,21.938-11.139,33.078v.14a27.939,27.939,0,0,0,1.16,7.6,37.866,37.866,0,0,0,6.56,12q.833,1.087,1.707,2.153c2.833,3.48,5.906,6.846,8.586,10.433a42.173,42.173,0,0,1,5.086,8.486,30.978,30.978,0,0,1,.133,23.932,44.969,44.969,0,0,1-2.593,5.106c-1.713,2.96-3.6,5.84-5.086,8.919a33.322,33.322,0,0,0-1.333,3.153c-3.333,8.586-4.053,18.085-6.773,26.945a61.33,61.33,0,0,1-10.353,19.725H357.89s6.093-29.584,6.959-35.677c.433-3.046,5.106-13.332,12.772-23.085.667-.893,1.427-1.787,2.18-2.666a74.693,74.693,0,0,0-16.092,17.559l-.593.933c1.387-4.26,2.913-8.466,4.48-12.612,3.88-10.253,8.2-20.712,15.932-28.484,4.366-4.386,9.679-7.766,13.839-12.346,7.119-7.846,10.2-18.665,10.279-29.331,0-1.427,0-2.846-.12-4.26-.793-12-4.893-23.485-9.333-34.664-2.273-5.746-4.666-11.732-4.806-17.825a21.657,21.657,0,0,1,.193-3.513c1.84-13.106,15.172-20.965,23.178-31.631,11.906-15.819,12.772-39.33,28.391-51.476,12-9.333,28.664-8.759,43.817-7.746,14.092.947,26.811,2.78,40.8,4.74s28.2,5.633,39.4,14.226c7.246,5.593,12.9,12.926,17.919,20.565,6.719,10.226,12.592,21.518,13.4,33.724q.12,1.74.093,3.473c-.113,13.952-6.073,27.511-6.873,41.55-.053.947-.08,1.887-.067,2.84a.452.452,0,0,0,0,.107c.08,12.159,4.773,24.838,11.106,35.111A96.552,96.552,0,0,1,619,472.034Z" data-name="Path 305" transform="translate(-148.972 -191.592)"/></g></svg>