<svg fill="none" height="256" viewBox="0 0 240 256" width="240" xmlns="http://www.w3.org/2000/svg"><path d="m118.001 236c65.17 0 118-52.83 118-118 0-65.1696-52.83-118-118-118-65.1696 0-117.99999292 52.8304-117.99999292 118 0 65.17 52.83039292 118 117.99999292 118z" fill="#42b983" fill-opacity=".33"/><path d="m153.001 30h-125c-4.9706 0-9 4.0294-9 9v156c0 4.971 4.0294 9 9 9h125c4.971 0 9-4.029 9-9v-156c0-4.9706-4.029-9-9-9z" fill="#026e57"/><path d="m153.001 39h-125v156h125z" fill="#fff"/><path d="m91.001 40c6.0751 0 11-4.9249 11-11s-4.9249-11-11-11c-6.0752 0-11 4.9249-11 11s4.9248 11 11 11z" fill="#c3cac9"/><path d="m115.001 26h-48c-1.6569 0-3 1.3431-3 3v12c0 1.6569 1.3431 3 3 3h48c1.657 0 3-1.3431 3-3v-12c0-1.6569-1.343-3-3-3z" fill="#c3cac9"/><path d="m64 58.999h-20c-2.2091 0-4 1.7909-4 4v20c0 2.2091 1.7909 4 4 4h20c2.2091 0 4-1.7909 4-4v-20c0-2.2091-1.7909-4-4-4z" fill="#42b983"/><path d="m109 65.999h-30c-1.6569 0-3 1.3431-3 3s1.3431 3 3 3h30c1.657 0 3-1.3431 3-3s-1.343-3-3-3z" fill="#d1d1d1"/><path d="m138 75.999h-59c-1.6569 0-3 1.3431-3 3s1.3431 3 3 3h59c1.657 0 3-1.3431 3-3s-1.343-3-3-3z" fill="#d1d1d1"/><path d="m44.929 72.391 4.977 6.36 12.443-11.614" stroke="#fff" stroke-linecap="round" stroke-linejoin="round" stroke-width="3"/><path d="m64 97.5h-20c-1.933 0-3.5 1.567-3.5 3.5v17c0 1.933 1.567 3.5 3.5 3.5h20c1.933 0 3.5-1.567 3.5-3.5v-17c0-1.933-1.567-3.5-3.5-3.5z" stroke="#707070"/><g fill="#d1d1d1"><path d="m109.5 103h-31c-1.3807 0-2.5 1.119-2.5 2.5s1.1193 2.5 2.5 2.5h31c1.381 0 2.5-1.119 2.5-2.5s-1.119-2.5-2.5-2.5z"/><path d="m138 112h-59c-1.6569 0-3 1.343-3 3s1.3431 3 3 3h59c1.657 0 3-1.343 3-3s-1.343-3-3-3z"/><path d="m74 133h-31c-1.6569 0-3 1.343-3 3s1.3431 3 3 3h31c1.6569 0 3-1.343 3-3s-1.3431-3-3-3z"/><path d="m138 143h-95c-1.6569 0-3 1.343-3 3s1.3431 3 3 3h95c1.657 0 3-1.343 3-3s-1.343-3-3-3z"/><path d="m137.5 154h-94c-1.933 0-3.5 1.567-3.5 3.5s1.567 3.5 3.5 3.5h94c1.933 0 3.5-1.567 3.5-3.5s-1.567-3.5-3.5-3.5z"/><path d="m138.5 166h-96c-1.3807 0-2.5 1.119-2.5 2.5s1.1193 2.5 2.5 2.5h96c1.381 0 2.5-1.119 2.5-2.5s-1.119-2.5-2.5-2.5z"/></g><path d="m137.326 54.0992 99.075 21.0752s1.352 5.087.48 9.1839c-.688 2.6993-2.053 5.1787-3.966 7.2044l-99.075-21.0752z" fill="#42b983"/><path d="m135.944 60.6018 101.236 21.4562c-.037.6984-.121 1.3934-.252 2.0803-.197.9274-.574 2.0936-.574 2.0936l-101.199-21.9206z" fill="#42b983"/><path d="m137.433 54.0645 98.924 21.0563s.216 1.2545.331 2.6737c.116 1.4192.129 3.0017.129 3.0017l-100.416-21.8767z" fill="#026e57"/><path d="m134.77 66.1254 100.36 21.9181s-.415.7297-.973 1.6589c-.559.9293-1.239 1.8582-1.239 1.8582l-99.075-21.0752z" fill="#026e57"/><path d="m137.45 54.0953-3.488 16.398-13.3-12.5591z" fill="#fef0d6"/><path d="m126.202 56.7293-1.251 5.3099-4.294-4.0788z" fill="#6f6f6f"/><path d="m168.863 244.841h4.643l-.525 7.812h-3.484z" fill="#ffd2ab"/><path d="m208.541 238.393 4.111-2.092 2.965 6.073-3.241 1.629z" fill="#ffd2ab"/><path d="m224.688 91.6008c.484-1.6997-.193-2.055.192-3.2265.384-1.1716 1.126-2.5684 1.711-1.9735.586.5948-.34 1.6435.249 3.3663.162.4694 1.838.7701 1.838.7701l2.297.5509c-.541.7161-1.224 1.3127-2.006 1.7525-1.264.6894-.84.8571-1.781 2.0388-2.085 2.6211-3.621.2651-3.219-1.1537.403-1.4188.235-.4261.719-2.1249z" fill="#ffd2ab"/><path d="m140.241 71.9023c.205-.7387.204-1.5191-.001-2.2577-.359-1.0326-1.004-2.303-1.445-1.8811-.44.4219.668 2.661-.47 3.3374-.452.2674-1.053.0726-1.884-.0999-.991-.2042-2.208-.4928-2.208-.4928.161.7756.479 1.5101.934 2.1581.845 1.3444 1.479 1.1569 2.462 3.1837.984 2.0268 3.711.7136 3.079-.6133-.398-1.0639-.557-2.2021-.467-3.3344z" fill="#ffd2ab"/><path d="m165.907 155.891 19.577 3.243-8.649 40.363-2.934 46.164c-.771.475-1.65.745-2.554.784-.994-.065-1.964-.332-2.852-.784 0 0-1.959-27.556-2.588-44.248s0-45.522 0-45.522z" fill="#0f2438"/><path d="m176.608 161.884 17.252-5.24s2.8 33.484 4.237 39.43 16.217 41.623 16.217 41.623c-.535.753-1.152 1.445-1.839 2.062-1.04.9-3.387.821-3.387.821s-19.837-35.374-21.08-37.119-6.89-16.549-8.831-24.866c-1.232-5.506-2.091-11.089-2.569-16.711z" fill="#173450"/><path d="m166.224 118.456c3.07 2.1 21.715 3.587 26.469 2.835s10.66-4.654 16.758-9.55 14.577-19.455 14.577-19.455c.402.6403.981 1.1507 1.666 1.47.689.306 1.429.4813 2.182.517 0 0-7.63 17.772-15 25.222s-16.039 11.191-16.938 14.1.092 17.825-2.344 23.916-25.694 8.13-27.37 2.345-2.9-21.44-4.825-26.258-7.5-12.113-11.892-18.2-12.763-39.668-12.763-39.668c.766.2218 1.58.2218 2.346 0 .674-.3142 1.26-.7904 1.706-1.386 0 0 8.025 23.023 13.489 31.284s8.869 10.735 11.939 12.828z" fill="#00398e"/><path d="m163.844 132.754c1.447 4.732 2.465 9.585 3.042 14.5 1.018 8.448 1.158 12.132 2.42 13.336s2.494 2.884 8.131 2.511 6.57-.6 8.4-1.008c1.414-.372 2.791-.875 4.113-1.5 0 0 1.878-.687 3.1-4.488.6-1.869.631-3.975 1.009-8.2s.456-13.642 1.233-15.583c.45-1.124 5.555-4.112 10.351-7.8 1.884-1.462 3.92-2.971 5.573-4.52 1.128-1.057 2.328-2.149 3.035-2.87 3.855-3.937 13.625-22.861 13.625-22.861s-7.63 17.772-15 25.222-16.039 11.191-16.938 14.1.092 17.825-2.344 23.916-25.693 8.128-27.369 2.342-2.9-21.44-4.825-26.258-7.5-12.113-11.892-18.2-12.764-39.663-12.764-39.663c1.662 3.2503 3.063 6.6276 4.19 10.1 3.092 9.6 6.847 23.5 10.328 28.764 5.463 8.257 10.499 12.893 12.582 18.16z" fill="#042d6b"/><path d="m169.235 250.179c.231.213.504.374.802.473.297.1.613.135.925.103.917-.062 1.807-.336 2.6-.8 0 0 1.684 4.181 0 4.8s-12.215 2.289-12.821-.003 8.494-4.573 8.494-4.573z" fill="#42b983"/><path d="m211.436 242.836c.298.1.614.136.927.106.312-.031.615-.127.888-.284.812-.43 1.514-1.042 2.05-1.788 0 0 3.239 3.134 1.952 4.385-1.287 1.25-10.233 7.057-11.716 5.216s5.899-7.635 5.899-7.635z" fill="#42b983"/><path d="m175.002 114.993 7.254-1.929s-.406 4.036-.338 5.4c.089.965.33 1.91.714 2.8 0 0-.136.527-1.767 1.087-1.196.365-2.474.365-3.67 0-.428-.153-.82-.392-1.153-.701s-.6-.683-.784-1.099c0 0 .036-1.482-.256-5.558z" fill="#ffd2ab"/><path d="m174.888 114.551 7.368-1.487s-.058-1.677.22.619c.1.817-1.09 2.024-2.874 3.2-1.015.707-2.1 1.308-3.238 1.793-1.076.322-1.158-.301-1.158-.301s-.09-1.919-.138-2.413c-.006-.476-.067-.949-.18-1.411z" fill="#f1b785"/><path d="m177.54 96.013c2.579.0098 5.049 1.0438 6.866 2.8745 1.817 1.8305 2.833 4.3085 2.823 6.8875 0 5.392-6.316 11.2-11.582 10.876s-8.158-5.484-8.158-10.876c.072-2.616 1.164-5.101 3.041-6.9242 1.878-1.8234 4.393-2.8417 7.01-2.8378z" fill="#ffd2ab"/><path d="m169.567 95.85s-3.848-4.353-6.624 1.073 2.334 6.624 4.1 6.814c2.519.112 5.042-.1 7.507-.631 1.966-.476 5.362.126 5.11 1.262s-.315 3.218.568 4.164 2.145-1.009 2.145-1.009c.091-.249.269-.456.501-.584s.502-.167.761-.11c.883.252.694 2.46 0 3.028-.946.86-1.569 2.018-1.766 3.281-.095.923-.095 1.853 0 2.776.189.883 2.019.379 3.848-.757s2.973-5.145 2.973-5.145 2.288-2.139 2.327-6.9-5.3-6.751-5.3-6.751-1.242-2.849-6.561-3.785-9.589 3.274-9.589 3.274z" fill="#0f2437"/><path d="m174.106 107.243c-.265-.352-2.078 2.01-1.316 3.155s1.525 0 1.525 0c.052-1.056-.018-2.115-.209-3.155z" fill="#f1b785"/></svg>